<svg xmlns="http://www.w3.org/2000/svg" version="1.1" xmlns:xlink="http://www.w3.org/1999/xlink" xmlns:svgjs="http://svgjs.dev/svgjs" width="500" height="500"><svg width="500" height="500" viewBox="0 0 500 500" fill="none" xmlns="http://www.w3.org/2000/svg">
<rect x="67.1835" y="102.067" width="116.279" height="54.2636" rx="4" fill="#42A376"></rect>
<rect x="112.403" y="34.8837" width="116.279" height="54.2636" rx="4" fill="#2B694C"></rect>
<rect x="204.134" width="67.1835" height="23.2558" rx="2" fill="#3B9169"></rect>
<rect x="204.134" y="476.744" width="67.1835" height="23.2558" rx="2" fill="#3B9169"></rect>
<rect x="246.77" y="34.8837" width="116.279" height="54.2636" rx="4" fill="#54BA8B"></rect>
<rect x="295.866" y="102.067" width="116.279" height="54.2636" rx="4" fill="#84CDAB"></rect>
<rect x="140.827" y="180.879" width="116.279" height="54.2636" rx="4" fill="#54BA8B"></rect>
<rect x="237.726" y="254.522" width="116.279" height="54.2636" rx="4" fill="#84CDAB"></rect>
<rect x="67.1835" y="325.581" width="116.279" height="54.2636" rx="4" fill="#84CDAB"></rect>
<rect x="112.403" y="410.853" width="116.279" height="54.2636" rx="4" fill="#54BA8B"></rect>
<rect x="246.77" y="410.853" width="116.279" height="54.2636" rx="4" fill="#2B694C"></rect>
<rect x="315.245" y="325.581" width="116.279" height="54.2636" rx="4" fill="#42A376"></rect>
</svg><style>@media (prefers-color-scheme: light) { :root { filter: none; } }
@media (prefers-color-scheme: dark) { :root { filter: none; } }
</style></svg>